<svg width="18" height="18" viewBox="0 0 18 18" fill="none" xmlns="http://www.w3.org/2000/svg">
<path d="M6.49951 0C8.22342 0 9.87672 0.684819 11.0957 1.90381C12.3147 3.12279 12.9995 4.77609 12.9995 6.5C12.9995 8.11 12.4095 9.59 11.4395 10.73L11.7095 11H12.4995L17.4995 16L15.9995 17.5L10.9995 12.5V11.71L10.7295 11.44C9.58951 12.41 8.10951 13 6.49951 13C4.7756 13 3.1223 12.3152 1.90332 11.0962C0.684331 9.87721 -0.000488281 8.22391 -0.000488281 6.5C-0.000488281 4.77609 0.684331 3.12279 1.90332 1.90381C3.1223 0.684819 4.7756 0 6.49951 0ZM6.49951 2C3.99951 2 1.99951 4 1.99951 6.5C1.99951 9 3.99951 11 6.49951 11C8.99951 11 10.9995 9 10.9995 6.5C10.9995 4 8.99951 2 6.49951 2Z" fill="white"/>
</svg>
