<svg width="147" height="23" viewBox="0 0 147 23" fill="none" xmlns="http://www.w3.org/2000/svg">
<path d="M59.8281 15.7695L63.6953 2.9375H67.6094L61.668 20H58L52.082 2.9375H55.9844L59.8281 15.7695ZM76.2695 18.7109C75.4336 19.7266 74.2773 20.2344 72.8008 20.2344C71.4414 20.2344 70.4023 19.8438 69.6836 19.0625C68.9727 18.2812 68.6094 17.1367 68.5938 15.6289V7.32031H71.9805V15.5117C71.9805 16.832 72.582 17.4922 73.7852 17.4922C74.9336 17.4922 75.7227 17.0938 76.1523 16.2969V7.32031H79.5508V20H76.3633L76.2695 18.7109ZM87.9414 20.2344C86.082 20.2344 84.5664 19.6641 83.3945 18.5234C82.2305 17.3828 81.6484 15.8633 81.6484 13.9648V13.6367C81.6484 12.3633 81.8945 11.2266 82.3867 10.2266C82.8789 9.21875 83.5742 8.44531 84.4727 7.90625C85.3789 7.35937 86.4102 7.08594 87.5664 7.08594C89.3008 7.08594 90.6641 7.63281 91.6562 8.72656C92.6562 9.82031 93.1562 11.3711 93.1562 13.3789V14.7617H85.082C85.1914 15.5898 85.5195 16.2539 86.0664 16.7539C86.6211 17.2539 87.3203 17.5039 88.1641 17.5039C89.4688 17.5039 90.4883 17.0312 91.2227 16.0859L92.8867 17.9492C92.3789 18.668 91.6914 19.2305 90.8242 19.6367C89.957 20.0352 88.9961 20.2344 87.9414 20.2344ZM87.5547 9.82812C86.8828 9.82812 86.3359 10.0547 85.9141 10.5078C85.5 10.9609 85.2344 11.6094 85.1172 12.4531H89.8281V12.1836C89.8125 11.4336 89.6094 10.8555 89.2188 10.4492C88.8281 10.0352 88.2734 9.82812 87.5547 9.82812ZM106.117 15.3945L107.781 7.32031H111.051L107.816 20H104.98L102.578 12.0195L100.176 20H97.3516L94.1172 7.32031H97.3867L99.0391 15.3828L101.359 7.32031H103.809L106.117 15.3945ZM112.211 13.543C112.211 12.2852 112.453 11.1641 112.938 10.1797C113.422 9.19531 114.117 8.43359 115.023 7.89453C115.938 7.35547 116.996 7.08594 118.199 7.08594C119.91 7.08594 121.305 7.60938 122.383 8.65625C123.469 9.70312 124.074 11.125 124.199 12.9219L124.223 13.7891C124.223 15.7344 123.68 17.2969 122.594 18.4766C121.508 19.6484 120.051 20.2344 118.223 20.2344C116.395 20.2344 114.934 19.6484 113.84 18.4766C112.754 17.3047 112.211 15.7109 112.211 13.6953V13.543ZM115.598 13.7891C115.598 14.9922 115.824 15.9141 116.277 16.5547C116.73 17.1875 117.379 17.5039 118.223 17.5039C119.043 17.5039 119.684 17.1914 120.145 16.5664C120.605 15.9336 120.836 14.9258 120.836 13.543C120.836 12.3633 120.605 11.4492 120.145 10.8008C119.684 10.1523 119.035 9.82812 118.199 9.82812C117.371 9.82812 116.73 10.1523 116.277 10.8008C115.824 11.4414 115.598 12.4375 115.598 13.7891ZM133.434 10.4961C132.973 10.4336 132.566 10.4023 132.215 10.4023C130.934 10.4023 130.094 10.8359 129.695 11.7031V20H126.309V7.32031H129.508L129.602 8.83203C130.281 7.66797 131.223 7.08594 132.426 7.08594C132.801 7.08594 133.152 7.13672 133.48 7.23828L133.434 10.4961ZM139.68 14.9141L138.461 16.1328V20H135.074V2H138.461V11.9727L139.117 11.1289L142.363 7.32031H146.43L141.848 12.6055L146.828 20H142.938L139.68 14.9141Z" fill="#BBDEFB"/>
<path d="M10.4691 16.7445L14.9471 0H20.5L13.4338 23H7.50441L0 0H6.00662L10.4691 16.7445Z" fill="#0B3457"/>
<path d="M34.6744 14.4224L37.3741 0H43L38.0046 23H32.1201L28.9677 9.88874L25.8799 23H20.0115L15 0H20.642L23.3418 14.4224L26.5751 0H31.3926L34.6744 14.4224Z" fill="#005CAC"/>
</svg>
