<svg width="143" height="21" viewBox="0 0 143 21" fill="none" xmlns="http://www.w3.org/2000/svg">
<path d="M55.7422 15.2478L59.6094 2.41577H63.5234L57.582 19.4783H53.9141L47.9961 2.41577H51.8984L55.7422 15.2478ZM72.1836 18.1892C71.3477 19.2048 70.1914 19.7126 68.7148 19.7126C67.3555 19.7126 66.3164 19.322 65.5977 18.5408C64.8867 17.7595 64.5234 16.615 64.5078 15.1072V6.79858H67.8945V14.99C67.8945 16.3103 68.4961 16.9705 69.6992 16.9705C70.8477 16.9705 71.6367 16.572 72.0664 15.7751V6.79858H75.4648V19.4783H72.2773L72.1836 18.1892ZM83.8555 19.7126C81.9961 19.7126 80.4805 19.1423 79.3086 18.0017C78.1445 16.8611 77.5625 15.3416 77.5625 13.4431V13.115C77.5625 11.8416 77.8086 10.7048 78.3008 9.70483C78.793 8.69702 79.4883 7.92358 80.3867 7.38452C81.293 6.83765 82.3242 6.56421 83.4805 6.56421C85.2148 6.56421 86.5781 7.11108 87.5703 8.20483C88.5703 9.29858 89.0703 10.8494 89.0703 12.8572V14.24H80.9961C81.1055 15.0681 81.4336 15.7322 81.9805 16.2322C82.5352 16.7322 83.2344 16.9822 84.0781 16.9822C85.3828 16.9822 86.4023 16.5095 87.1367 15.5642L88.8008 17.4275C88.293 18.1462 87.6055 18.7087 86.7383 19.115C85.8711 19.5134 84.9102 19.7126 83.8555 19.7126ZM83.4688 9.3064C82.7969 9.3064 82.25 9.53296 81.8281 9.98608C81.4141 10.4392 81.1484 11.0876 81.0312 11.9314H85.7422V11.6619C85.7266 10.9119 85.5234 10.3337 85.1328 9.92749C84.7422 9.51343 84.1875 9.3064 83.4688 9.3064ZM102.031 14.8728L103.695 6.79858H106.965L103.73 19.4783H100.895L98.4922 11.4978L96.0898 19.4783H93.2656L90.0312 6.79858H93.3008L94.9531 14.8611L97.2734 6.79858H99.7227L102.031 14.8728ZM108.125 13.0212C108.125 11.7634 108.367 10.6423 108.852 9.65796C109.336 8.67358 110.031 7.91187 110.938 7.3728C111.852 6.83374 112.91 6.56421 114.113 6.56421C115.824 6.56421 117.219 7.08765 118.297 8.13452C119.383 9.1814 119.988 10.6033 120.113 12.4001L120.137 13.2673C120.137 15.2126 119.594 16.7751 118.508 17.9548C117.422 19.1267 115.965 19.7126 114.137 19.7126C112.309 19.7126 110.848 19.1267 109.754 17.9548C108.668 16.783 108.125 15.1892 108.125 13.1736V13.0212ZM111.512 13.2673C111.512 14.4705 111.738 15.3923 112.191 16.033C112.645 16.6658 113.293 16.9822 114.137 16.9822C114.957 16.9822 115.598 16.6697 116.059 16.0447C116.52 15.4119 116.75 14.4041 116.75 13.0212C116.75 11.8416 116.52 10.9275 116.059 10.2791C115.598 9.63062 114.949 9.3064 114.113 9.3064C113.285 9.3064 112.645 9.63062 112.191 10.2791C111.738 10.9197 111.512 11.9158 111.512 13.2673ZM129.348 9.97437C128.887 9.91187 128.48 9.88062 128.129 9.88062C126.848 9.88062 126.008 10.3142 125.609 11.1814V19.4783H122.223V6.79858H125.422L125.516 8.3103C126.195 7.14624 127.137 6.56421 128.34 6.56421C128.715 6.56421 129.066 6.61499 129.395 6.71655L129.348 9.97437ZM135.594 14.3923L134.375 15.6111V19.4783H130.988V1.47827H134.375V11.4509L135.031 10.6072L138.277 6.79858H142.344L137.762 12.0837L142.742 19.4783H138.852L135.594 14.3923Z" fill="#1E88E5"/>
<path d="M9.64654 15.2885L13.7726 0H18.8893L12.3783 21H6.91478L0 0H5.53467L9.64654 15.2885Z" fill="#0B3457"/>
<path d="M31.9498 13.1683L34.4375 0H39.6213L35.0184 21H29.5962L26.6915 9.02885L23.8463 21H18.4391L13.8213 0H19.02L21.5077 13.1683L24.4869 0H28.9259L31.9498 13.1683Z" fill="#005CAC"/>
</svg>
