<svg width="20" height="20" viewBox="0 0 20 20" fill="none" xmlns="http://www.w3.org/2000/svg">
<path fill-rule="evenodd" clip-rule="evenodd" d="M10 18C14.4183 18 18 14.4183 18 10C18 5.58172 14.4183 2 10 2C5.58172 2 2 5.58172 2 10C2 14.4183 5.58172 18 10 18ZM10 20C15.5228 20 20 15.5228 20 10C20 4.47715 15.5228 0 10 0C4.47715 0 0 4.47715 0 10C0 15.5228 4.47715 20 10 20Z" fill="#E53935"/>
<path d="M10.7319 11.9864H9.21739L9.05072 5H10.9058L10.7319 11.9864ZM9 14.1224C9 13.8639 9.08937 13.6508 9.26812 13.483C9.44686 13.3107 9.69082 13.2245 10 13.2245C10.3092 13.2245 10.5531 13.3107 10.7319 13.483C10.9106 13.6508 11 13.8639 11 14.1224C11 14.3719 10.913 14.5805 10.7391 14.7483C10.5652 14.9161 10.3188 15 10 15C9.68116 15 9.43478 14.9161 9.26087 14.7483C9.08696 14.5805 9 14.3719 9 14.1224Z" fill="#E53935"/>
</svg>
